<svg width="14px" height="18px" viewBox="0 0 14 18" version="1.1" xmlns="http://www.w3.org/2000/svg" xmlns:xlink="http://www.w3.org/1999/xlink">
    <g id="Desktop" stroke="none" stroke-width="1" fill="none" fill-rule="evenodd">
        <g id="MegaMenu---Mini-Cart" transform="translate(-1374.000000, -291.000000)" fill="#000000" fill-rule="nonzero">
            <g id="Group-28" transform="translate(1017.000000, 98.000000)">
                <g id="bin" transform="translate(357.000000, 193.000000)">
                    <path d="M8.85634744,14.4305281 L8.85634744,4.69719108 C8.85634744,4.49367071 8.70668151,4.32849476 8.52227171,4.32849476 C8.33786192,4.32849476 8.18819599,4.49367071 8.18819599,4.69719108 L8.18819599,14.4305281 C8.18819599,14.6340484 8.33786192,14.7992244 8.52227171,14.7992244 C8.70668151,14.7992244 8.85634744,14.6340484 8.85634744,14.4305281 Z M5.81158129,14.4305281 L5.81158129,4.69719108 C5.81158129,4.49367071 5.66191537,4.32849476 5.47750557,4.32849476 C5.29309577,4.32849476 5.14342984,4.49367071 5.14342984,4.69719108 L5.14342984,14.4305281 C5.14342984,14.6340484 5.29309577,14.7992244 5.47750557,14.7992244 C5.66191537,14.7992244 5.81158129,14.6340484 5.81158129,14.4305281 Z M12.1826281,4.32849476 C11.9982183,4.32849476 11.8485523,4.49367071 11.8485523,4.69719108 L11.8485523,16.3509443 C11.8485523,16.8536003 11.4783964,17.2626074 11.0233853,17.2626074 L2.97728285,17.2626074 C2.52182628,17.2626074 2.15122494,16.8536003 2.15122494,16.3509443 L2.15122494,4.69719108 C2.15122494,4.49367071 2.00155902,4.32849476 1.81714922,4.32849476 C1.63273942,4.32849476 1.4830735,4.49367071 1.4830735,4.69719108 L1.4830735,16.3509443 C1.4830735,17.2601494 2.15345212,18 2.97728285,18 L11.0231626,18 C11.8465479,18 12.5164811,17.2601494 12.5164811,16.3509443 L12.5164811,4.69719108 C12.5167038,4.49367071 12.3670379,4.32849476 12.1826281,4.32849476 Z M13.6659243,2.5226202 L10.3069042,2.5226202 L10.3069042,0.368696317 C10.3069042,0.16517595 10.1572383,0 9.97282851,0 L4.02717149,0 C3.84276169,0 3.69309577,0.16517595 3.69309577,0.368696317 L3.69309577,2.5226202 L0.334075724,2.5226202 C0.149665924,2.5226202 0,2.68779615 0,2.89131652 C0,3.09483689 0.149665924,3.26001284 0.334075724,3.26001284 L13.6659243,3.26001284 C13.8503341,3.26001284 14,3.09483689 14,2.89131652 C14,2.68779615 13.8503341,2.5226202 13.6659243,2.5226202 Z M9.63875278,2.5226202 L4.36124722,2.5226202 L4.36124722,0.737392634 L9.63853007,0.737392634 L9.63853007,2.5226202 L9.63875278,2.5226202 Z" id="Shape"></path>
                </g>
            </g>
        </g>
    </g>
</svg>